<svg preserveAspectRatio="none" overflow="visible" style="display: block;" width="32" height="32" viewBox="0 0 32 32" fill="none" xmlns="http://www.w3.org/2000/svg">
<g id="Utility Icons / A / add">
<path id="Icon" d="M18.4615 17.8462H28.6154C29.1077 17.8462 29.5385 17.4154 29.5385 16.9231V15.0769C29.5385 14.5846 29.1077 14.1538 28.6154 14.1538H18.4615C18.0923 14.1538 17.8462 13.9077 17.8462 13.5385V3.38462C17.8462 2.89231 17.4154 2.46154 16.9231 2.46154H15.0769C14.5846 2.46154 14.1538 2.89231 14.1538 3.38462V13.5385C14.1538 13.9077 13.9077 14.1538 13.5385 14.1538H3.38462C2.89231 14.1538 2.46154 14.5846 2.46154 15.0769V16.9231C2.46154 17.4154 2.89231 17.8462 3.38462 17.8462H13.5385C13.9077 17.8462 14.1538 18.0923 14.1538 18.4615V28.6154C14.1538 29.1077 14.5846 29.5385 15.0769 29.5385H16.9231C17.4154 29.5385 17.8462 29.1077 17.8462 28.6154V18.4615C17.8462 18.0923 18.0923 17.8462 18.4615 17.8462Z" fill="#747474"/>
</g>
</svg>
