<svg preserveAspectRatio="none" overflow="visible" style="display: block;" width="97.6" height="97.6" viewBox="0 0 97.6 97.6" fill="none" xmlns="http://www.w3.org/2000/svg">
<path id="QR code (placeholder)" d="M0.5 0.5H5.67V5.67H0.5V0.5ZM5.07 0.5H10.24V5.67H5.07V0.5ZM9.64 0.5H14.81V5.67H9.64V0.5ZM14.21 0.5H19.39V5.67H14.21V0.5ZM18.79 0.5H23.96V5.67H18.79V0.5ZM23.36 0.5H28.53V5.67H23.36V0.5ZM27.93 0.5H33.1V5.67H27.93V0.5ZM41.64 0.5H46.81V5.67H41.64V0.5ZM55.36 0.5H60.53V5.67H55.36V0.5ZM64.5 0.5H69.67V5.67H64.5V0.5ZM69.07 0.5H74.24V5.67H69.07V0.5ZM73.64 0.5H78.81V5.67H73.64V0.5ZM78.21 0.5H83.39V5.67H78.21V0.5ZM82.79 0.5H87.96V5.67H82.79V0.5ZM87.36 0.5H92.53V5.67H87.36V0.5ZM91.93 0.5H97.1V5.67H91.93V0.5ZM0.5 5.07H5.67V10.24H0.5V5.07ZM27.93 5.07H33.1V10.24H27.93V5.07ZM41.64 5.07H46.81V10.24H41.64V5.07ZM46.21 5.07H51.39V10.24H46.21V5.07ZM50.79 5.07H55.96V10.24H50.79V5.07ZM55.36 5.07H60.53V10.24H55.36V5.07ZM64.5 5.07H69.67V10.24H64.5V5.07ZM91.93 5.07H97.1V10.24H91.93V5.07ZM0.5 9.64H5.67V14.81H0.5V9.64ZM9.64 9.64H14.81V14.81H9.64V9.64ZM14.21 9.64H19.39V14.81H14.21V9.64ZM18.79 9.64H23.96V14.81H18.79V9.64ZM27.93 9.64H33.1V14.81H27.93V9.64ZM41.64 9.64H46.81V14.81H41.64V9.64ZM46.21 9.64H51.39V14.81H46.21V9.64ZM55.36 9.64H60.53V14.81H55.36V9.64ZM64.5 9.64H69.67V14.81H64.5V9.64ZM73.64 9.64H78.81V14.81H73.64V9.64ZM78.21 9.64H83.39V14.81H78.21V9.64ZM82.79 9.64H87.96V14.81H82.79V9.64ZM91.93 9.64H97.1V14.81H91.93V9.64ZM0.5 14.21H5.67V19.39H0.5V14.21ZM9.64 14.21H14.81V19.39H9.64V14.21ZM14.21 14.21H19.39V19.39H14.21V14.21ZM18.79 14.21H23.96V19.39H18.79V14.21ZM27.93 14.21H33.1V19.39H27.93V14.21ZM37.07 14.21H42.24V19.39H37.07V14.21ZM41.64 14.21H46.81V19.39H41.64V14.21ZM64.5 14.21H69.67V19.39H64.5V14.21ZM73.64 14.21H78.81V19.39H73.64V14.21ZM78.21 14.21H83.39V19.39H78.21V14.21ZM82.79 14.21H87.96V19.39H82.79V14.21ZM91.93 14.21H97.1V19.39H91.93V14.21ZM0.5 18.79H5.67V23.96H0.5V18.79ZM9.64 18.79H14.81V23.96H9.64V18.79ZM14.21 18.79H19.39V23.96H14.21V18.79ZM18.79 18.79H23.96V23.96H18.79V18.79ZM27.93 18.79H33.1V23.96H27.93V18.79ZM37.07 18.79H42.24V23.96H37.07V18.79ZM46.21 18.79H51.39V23.96H46.21V18.79ZM50.79 18.79H55.96V23.96H50.79V18.79ZM64.5 18.79H69.67V23.96H64.5V18.79ZM73.64 18.79H78.81V23.96H73.64V18.79ZM78.21 18.79H83.39V23.96H78.21V18.79ZM82.79 18.79H87.96V23.96H82.79V18.79ZM91.93 18.79H97.1V23.96H91.93V18.79ZM0.5 23.36H5.67V28.53H0.5V23.36ZM27.93 23.36H33.1V28.53H27.93V23.36ZM37.07 23.36H42.24V28.53H37.07V23.36ZM64.5 23.36H69.67V28.53H64.5V23.36ZM91.93 23.36H97.1V28.53H91.93V23.36ZM0.5 27.93H5.67V33.1H0.5V27.93ZM5.07 27.93H10.24V33.1H5.07V27.93ZM9.64 27.93H14.81V33.1H9.64V27.93ZM14.21 27.93H19.39V33.1H14.21V27.93ZM18.79 27.93H23.96V33.1H18.79V27.93ZM23.36 27.93H28.53V33.1H23.36V27.93ZM27.93 27.93H33.1V33.1H27.93V27.93ZM50.79 27.93H55.96V33.1H50.79V27.93ZM55.36 27.93H60.53V33.1H55.36V27.93ZM64.5 27.93H69.67V33.1H64.5V27.93ZM69.07 27.93H74.24V33.1H69.07V27.93ZM73.64 27.93H78.81V33.1H73.64V27.93ZM78.21 27.93H83.39V33.1H78.21V27.93ZM82.79 27.93H87.96V33.1H82.79V27.93ZM87.36 27.93H92.53V33.1H87.36V27.93ZM91.93 27.93H97.1V33.1H91.93V27.93ZM37.07 32.5H42.24V37.67H37.07V32.5ZM50.79 32.5H55.96V37.67H50.79V32.5ZM0.5 37.07H5.67V42.24H0.5V37.07ZM5.07 37.07H10.24V42.24H5.07V37.07ZM9.64 37.07H14.81V42.24H9.64V37.07ZM18.79 37.07H23.96V42.24H18.79V37.07ZM32.5 37.07H37.67V42.24H32.5V37.07ZM37.07 37.07H42.24V42.24H37.07V37.07ZM46.21 37.07H51.39V42.24H46.21V37.07ZM69.07 37.07H74.24V42.24H69.07V37.07ZM73.64 37.07H78.81V42.24H73.64V37.07ZM78.21 37.07H83.39V42.24H78.21V37.07ZM91.93 37.07H97.1V42.24H91.93V37.07ZM18.79 41.64H23.96V46.81H18.79V41.64ZM23.36 41.64H28.53V46.81H23.36V41.64ZM32.5 41.64H37.67V46.81H32.5V41.64ZM41.64 41.64H46.81V46.81H41.64V41.64ZM50.79 41.64H55.96V46.81H50.79V41.64ZM69.07 41.64H74.24V46.81H69.07V41.64ZM78.21 41.64H83.39V46.81H78.21V41.64ZM14.21 46.21H19.39V51.39H14.21V46.21ZM46.21 46.21H51.39V51.39H46.21V46.21ZM50.79 46.21H55.96V51.39H50.79V46.21ZM55.36 46.21H60.53V51.39H55.36V46.21ZM69.07 46.21H74.24V51.39H69.07V46.21ZM73.64 46.21H78.81V51.39H73.64V46.21ZM87.36 46.21H92.53V51.39H87.36V46.21ZM91.93 46.21H97.1V51.39H91.93V46.21ZM23.36 50.79H28.53V55.96H23.36V50.79ZM27.93 50.79H33.1V55.96H27.93V50.79ZM32.5 50.79H37.67V55.96H32.5V50.79ZM37.07 50.79H42.24V55.96H37.07V50.79ZM41.64 50.79H46.81V55.96H41.64V50.79ZM55.36 50.79H60.53V55.96H55.36V50.79ZM64.5 50.79H69.67V55.96H64.5V50.79ZM69.07 50.79H74.24V55.96H69.07V50.79ZM73.64 50.79H78.81V55.96H73.64V50.79ZM78.21 50.79H83.39V55.96H78.21V50.79ZM82.79 50.79H87.96V55.96H82.79V50.79ZM87.36 50.79H92.53V55.96H87.36V50.79ZM0.5 55.36H5.67V60.53H0.5V55.36ZM9.64 55.36H14.81V60.53H9.64V55.36ZM14.21 55.36H19.39V60.53H14.21V55.36ZM18.79 55.36H23.96V60.53H18.79V55.36ZM23.36 55.36H28.53V60.53H23.36V55.36ZM27.93 55.36H33.1V60.53H27.93V55.36ZM37.07 55.36H42.24V60.53H37.07V55.36ZM46.21 55.36H51.39V60.53H46.21V55.36ZM55.36 55.36H60.53V60.53H55.36V55.36ZM64.5 55.36H69.67V60.53H64.5V55.36ZM69.07 55.36H74.24V60.53H69.07V55.36ZM37.07 59.93H42.24V65.1H37.07V59.93ZM50.79 59.93H55.96V65.1H50.79V59.93ZM55.36 59.93H60.53V65.1H55.36V59.93ZM87.36 59.93H92.53V65.1H87.36V59.93ZM91.93 59.93H97.1V65.1H91.93V59.93ZM0.5 64.5H5.67V69.67H0.5V64.5ZM5.07 64.5H10.24V69.67H5.07V64.5ZM9.64 64.5H14.81V69.67H9.64V64.5ZM14.21 64.5H19.39V69.67H14.21V64.5ZM18.79 64.5H23.96V69.67H18.79V64.5ZM23.36 64.5H28.53V69.67H23.36V64.5ZM27.93 64.5H33.1V69.67H27.93V64.5ZM46.21 64.5H51.39V69.67H46.21V64.5ZM50.79 64.5H55.96V69.67H50.79V64.5ZM64.5 64.5H69.67V69.67H64.5V64.5ZM69.07 64.5H74.24V69.67H69.07V64.5ZM73.64 64.5H78.81V69.67H73.64V64.5ZM78.21 64.5H83.39V69.67H78.21V64.5ZM0.5 69.07H5.67V74.24H0.5V69.07ZM27.93 69.07H33.1V74.24H27.93V69.07ZM37.07 69.07H42.24V74.24H37.07V69.07ZM55.36 69.07H60.53V74.24H55.36V69.07ZM59.93 69.07H65.1V74.24H59.93V69.07ZM78.21 69.07H83.39V74.24H78.21V69.07ZM91.93 69.07H97.1V74.24H91.93V69.07ZM0.5 73.64H5.67V78.81H0.5V73.64ZM9.64 73.64H14.81V78.81H9.64V73.64ZM14.21 73.64H19.39V78.81H14.21V73.64ZM18.79 73.64H23.96V78.81H18.79V73.64ZM27.93 73.64H33.1V78.81H27.93V73.64ZM37.07 73.64H42.24V78.81H37.07V73.64ZM41.64 73.64H46.81V78.81H41.64V73.64ZM46.21 73.64H51.39V78.81H46.21V73.64ZM64.5 73.64H69.67V78.81H64.5V73.64ZM69.07 73.64H74.24V78.81H69.07V73.64ZM73.64 73.64H78.81V78.81H73.64V73.64ZM78.21 73.64H83.39V78.81H78.21V73.64ZM87.36 73.64H92.53V78.81H87.36V73.64ZM0.5 78.21H5.67V83.39H0.5V78.21ZM9.64 78.21H14.81V83.39H9.64V78.21ZM14.21 78.21H19.39V83.39H14.21V78.21ZM18.79 78.21H23.96V83.39H18.79V78.21ZM27.93 78.21H33.1V83.39H27.93V78.21ZM46.21 78.21H51.39V83.39H46.21V78.21ZM50.79 78.21H55.96V83.39H50.79V78.21ZM59.93 78.21H65.1V83.39H59.93V78.21ZM64.5 78.21H69.67V83.39H64.5V78.21ZM69.07 78.21H74.24V83.39H69.07V78.21ZM91.93 78.21H97.1V83.39H91.93V78.21ZM0.5 82.79H5.67V87.96H0.5V82.79ZM9.64 82.79H14.81V87.96H9.64V82.79ZM14.21 82.79H19.39V87.96H14.21V82.79ZM18.79 82.79H23.96V87.96H18.79V82.79ZM27.93 82.79H33.1V87.96H27.93V82.79ZM41.64 82.79H46.81V87.96H41.64V82.79ZM59.93 82.79H65.1V87.96H59.93V82.79ZM82.79 82.79H87.96V87.96H82.79V82.79ZM87.36 82.79H92.53V87.96H87.36V82.79ZM91.93 82.79H97.1V87.96H91.93V82.79ZM0.5 87.36H5.67V92.53H0.5V87.36ZM27.93 87.36H33.1V92.53H27.93V87.36ZM37.07 87.36H42.24V92.53H37.07V87.36ZM41.64 87.36H46.81V92.53H41.64V87.36ZM46.21 87.36H51.39V92.53H46.21V87.36ZM78.21 87.36H83.39V92.53H78.21V87.36ZM0.5 91.93H5.67V97.1H0.5V91.93ZM5.07 91.93H10.24V97.1H5.07V91.93ZM9.64 91.93H14.81V97.1H9.64V91.93ZM14.21 91.93H19.39V97.1H14.21V91.93ZM18.79 91.93H23.96V97.1H18.79V91.93ZM23.36 91.93H28.53V97.1H23.36V91.93ZM27.93 91.93H33.1V97.1H27.93V91.93ZM37.07 91.93H42.24V97.1H37.07V91.93ZM50.79 91.93H55.96V97.1H50.79V91.93ZM55.36 91.93H60.53V97.1H55.36V91.93ZM64.5 91.93H69.67V97.1H64.5V91.93ZM69.07 91.93H74.24V97.1H69.07V91.93ZM73.64 91.93H78.81V97.1H73.64V91.93ZM78.21 91.93H83.39V97.1H78.21V91.93ZM82.79 91.93H87.96V97.1H82.79V91.93ZM91.93 91.93H97.1V97.1H91.93V91.93Z" fill="#0D1412" stroke="black"/>
</svg>
